<svg id="Layer_1" data-name="Layer 1" xmlns="http://www.w3.org/2000/svg" viewBox="0 0 160.16 39.51">
  <defs>
    <style>.cls-1{fill:#fff;}</style>
  </defs>
  <title>logo-white</title>
  <path class="cls-1"
        d="M144,54.87a3.51,3.51,0,0,0,2-.47,2.48,2.48,0,0,0,1.2-2.16c0-1.05-.49-1.93-2.06-2.8l-.49-.27c-1.08-.6-1.27-1-1.27-1.52,0-.79.78-1.24,1.63-1.24a1.61,1.61,0,0,1,1.33.54,1.34,1.34,0,0,1,.32.77c0,.13,0,.2.12.2s.15-.12.15-.37c0-.91,0-1.23,0-1.38s-.06-.12-.16-.15a7.28,7.28,0,0,0-1.7-.19c-1.66,0-3,.91-3,2.32,0,1,.46,1.79,1.87,2.62l.69.41c1.06.62,1.18,1.13,1.18,1.63a1.49,1.49,0,0,1-1.65,1.46,1.85,1.85,0,0,1-1.91-1.14,2.35,2.35,0,0,1-.1-.59c0-.09,0-.19-.13-.19s-.14.12-.14.29-.07.91-.07,1.54c0,.26,0,.31.23.39a5.07,5.07,0,0,0,1.94.3m-9-3.71s-.06,0,0-.08l1.16-2.87c0-.05,0-.12.07-.12s0,.07,0,.12l1.13,2.89s0,.06-.06.06Zm2.57.64a.11.11,0,0,1,.12.08l.93,2.34a.19.19,0,0,1-.11.26c-.12,0-.15.05-.15.12s.13.08.35.09c1,0,1.87,0,2.29,0s.52,0,.52-.12,0-.12-.16-.12a4.14,4.14,0,0,1-.45,0c-.22,0-.56-.2-1-1.24-.76-1.75-2.75-6.42-3-7.06-.12-.26-.18-.36-.35-.36s-.22.13-.35.46l-3.13,7.2c-.24.59-.44.94-1,1l-.35,0c-.1,0-.14.05-.14.12s.07.12.22.12c.63,0,1.26,0,1.39,0,.38,0,.93,0,1.33,0,.12,0,.19,0,.19-.12s0-.12-.18-.12h-.18c-.36,0-.47-.12-.47-.33a2.17,2.17,0,0,1,.17-.71l.64-1.56c0-.07,0-.08.11-.08Zm-9.49-2.47c0-1.75,0-2.08,0-2.44s.12-.57.45-.63a3.42,3.42,0,0,1,.46,0c.15,0,.21,0,.21-.12S129.2,46,129,46l-1.73,0c-.32,0-1.08,0-1.64,0-.18,0-.26,0-.26.11s.07.12.21.12a2,2,0,0,1,.39,0c.38.11.49.23.52.63s0,.69,0,2.44v2c0,1.06,0,2,0,2.45s-.11.56-.36.62a2.21,2.21,0,0,1-.42,0c-.15,0-.19.06-.19.12s.08.12.23.12l.83,0h.68l1.59,0c.59,0,1.29,0,2.14,0,.63,0,.68-.06.76-.31a8.35,8.35,0,0,0,.18-1.33c0-.14,0-.26-.11-.26s-.12.07-.14.17a1.34,1.34,0,0,1-.3.7c-.29.31-.76.32-1.39.32-.93,0-1.39-.06-1.59-.24s-.26-.95-.26-2.43Zm-7.49,0c0-1.75,0-2.08,0-2.44s.13-.57.45-.63a3.73,3.73,0,0,1,.46,0c.15,0,.22,0,.22-.12s-.08-.11-.26-.11l-1.72,0c-.33,0-1.09,0-1.64,0-.18,0-.26,0-.26.11s.07.12.2.12a2.15,2.15,0,0,1,.4,0c.38.11.49.23.51.63s0,.69,0,2.44v2c0,1.06,0,2-.06,2.45s-.11.56-.35.62a2.3,2.3,0,0,1-.42,0c-.15,0-.19.06-.19.12s.08.12.23.12l.83,0h.67l1.59,0c.6,0,1.29,0,2.15,0,.62,0,.68-.06.76-.31a9.43,9.43,0,0,0,.17-1.33c0-.14,0-.26-.1-.26s-.13.07-.14.17a1.43,1.43,0,0,1-.3.7c-.3.31-.76.32-1.4.32-.92,0-1.38-.06-1.59-.24s-.25-.95-.25-2.43Zm-7.13,2c0,1.11,0,2-.05,2.51s-.11.5-.36.56a2.21,2.21,0,0,1-.42,0c-.15,0-.19.06-.19.12s.08.12.23.12c.48,0,1.29,0,1.56,0s1.14,0,1.93,0c.14,0,.23,0,.23-.12s0-.12-.19-.12a5.86,5.86,0,0,1-.61,0c-.35-.06-.43-.23-.48-.55,0-.49,0-1.41,0-2.52v-2c0-1.75,0-2.08,0-2.44s.12-.57.45-.63a2.21,2.21,0,0,1,.35,0c.12,0,.19,0,.19-.13s-.1-.1-.25-.1l-1.53,0-1.6,0c-.19,0-.29,0-.29.1s.07.13.2.13a1.59,1.59,0,0,1,.43.06c.26.08.38.21.41.61s0,.69,0,2.44Zm-7.11,2.71c.25.64.33.83.51.83s.27-.22.63-1,.93-2.16,1.8-4.15c.73-1.67,1.1-2.4,1.63-3.67.37-.87.57-1.1.75-1.23a1.18,1.18,0,0,1,.66-.16c.14,0,.22,0,.22-.12s-.11-.12-.29-.12c-.4,0-1,0-1.27,0s-.75,0-1.43,0c-.26,0-.38,0-.38.13s.11.11.23.11a1.7,1.7,0,0,1,.55.07.26.26,0,0,1,.17.26,1.62,1.62,0,0,1-.12.5c-.33.9-2.09,5.27-2.67,6.76h-.06L105,46.13a4.16,4.16,0,0,1-.32-1.05.32.32,0,0,1,.14-.28.9.9,0,0,1,.53-.1c.12,0,.2,0,.2-.12s-.15-.12-.31-.12c-.68,0-1.33,0-1.67,0s-1.25,0-2,0c-.2,0-.35,0-.35.12s0,.12.16.12a1.89,1.89,0,0,1,.53.06c.49.13.72.28,1,1Zm-14.72,0a2.63,2.63,0,0,1-2.61-2.79A2.44,2.44,0,0,1,90,49.21c.23.34,1.1,1.32,1.45,1.7s1.66,1.65,2.45,2.33a3.64,3.64,0,0,1-2.23.82m-4.24-2.15c0,1.18.87,3,3.78,3a4.36,4.36,0,0,0,3.21-1.23,4.12,4.12,0,0,0,3.21,1h1c.3,0,.41,0,.41-.12s-.07-.12-.19-.12A3.94,3.94,0,0,1,97.45,54a12.82,12.82,0,0,1-1.89-1.33,5.36,5.36,0,0,0,1.33-3.22c0-.16-.2-.24-.46-.27a15.2,15.2,0,0,0-1.63-.09c-.11,0-.22,0-.22.13s.09.11.17.11a1,1,0,0,1,.66.2.79.79,0,0,1,.26.63A4.1,4.1,0,0,1,95,52.25c-.26-.23-1.93-1.74-2.39-2.27-1.09-1.2-2.26-2.29-2.26-3.57a1.46,1.46,0,0,1,1.46-1.55,1.88,1.88,0,0,1,1.51.62,1.79,1.79,0,0,1,.39,1.14c0,.2,0,.25.09.25s.14,0,.17-.23a16.41,16.41,0,0,0,.15-1.74c0-.16,0-.27-.23-.35a4.68,4.68,0,0,0-1.65-.28c-2.36,0-3.31,1.42-3.3,2.5a3,3,0,0,0,.7,1.92,4,4,0,0,0-2.22,3.22m-9-1.45c0-.08,0-.1.08-.1.21,0,1.62,0,1.92,0a.62.62,0,0,1,.57.42,1.25,1.25,0,0,1,.08.36c0,.08,0,.16.11.16s.13-.16.13-.26,0-.61,0-.84.1-.68.1-.75,0-.1-.07-.1-.09,0-.16.12a.61.61,0,0,1-.5.2,4.79,4.79,0,0,1-.55,0H78.52c-.06,0-.08,0-.08-.11v-2.8c0-.13,0-.16.11-.16l2,0a.81.81,0,0,1,.76.35,1,1,0,0,1,.07.44c0,.13.07.19.15.19s.11-.14.12-.23,0-.82.06-.94c0-.3.09-.43.09-.51s0-.11-.08-.11-.12.05-.19.07A3.94,3.94,0,0,1,81,46H77.63c-.34,0-1.1,0-1.71,0-.19,0-.29,0-.29.11s.1.12.21.12a2.74,2.74,0,0,1,.47,0c.38.1.49.23.52.63s0,.69,0,2.44v2c0,1.11,0,2,0,2.46s-.11.55-.36.61a2.12,2.12,0,0,1-.42,0c-.13,0-.17.06-.17.12s.08.12.24.12c.45,0,1.21,0,1.52,0s1.15,0,1.91,0c.18,0,.26,0,.26-.12s0-.12-.2-.12-.42,0-.59,0c-.35-.06-.43-.27-.47-.61s-.07-1.31-.07-2.42ZM71,49.33c0-1.75,0-2.08,0-2.44s.13-.57.45-.63a3.73,3.73,0,0,1,.46,0c.15,0,.22,0,.22-.12S72,46,71.84,46l-1.72,0c-.33,0-1.08,0-1.64,0-.18,0-.26,0-.26.11s.07.12.2.12a2.15,2.15,0,0,1,.4,0c.38.11.49.23.51.63s0,.69,0,2.44v2c0,1.06,0,2-.06,2.45s-.11.56-.35.62a2.21,2.21,0,0,1-.42,0c-.15,0-.19.06-.19.12s.08.12.23.12l.83,0h.68l1.58,0c.6,0,1.29,0,2.15,0,.62,0,.68-.06.76-.31a9.7,9.7,0,0,0,.18-1.33c0-.14,0-.26-.11-.26s-.13.07-.14.17a1.43,1.43,0,0,1-.3.7c-.3.31-.76.32-1.4.32-.92,0-1.38-.06-1.58-.24S71,52.85,71,51.37ZM62.6,54.25C60.34,54.25,59,52.37,59,50c0-2.86,1.56-3.56,2.89-3.56,1.93,0,3.46,1.57,3.46,4.13,0,3.28-1.9,3.68-2.74,3.68m-.49.62a4.67,4.67,0,0,0,5-4.72c0-2.65-1.87-4.32-4.89-4.32-3.62,0-5,2.55-5,4.52a4.5,4.5,0,0,0,4.89,4.52M55,52.32c0-.68,0-1.22,0-1.63s.15-.71.52-.78a3.15,3.15,0,0,1,.37,0c.09,0,.17,0,.17-.1s-.09-.14-.27-.14c-.45,0-1.17,0-1.59,0s-1.26,0-2,0c-.19,0-.28,0-.28.14s.08.1.2.1a3.59,3.59,0,0,1,.53,0c.45.1.57.32.59.78s0,.92,0,1.6v1.28c0,.23,0,.41-.26.5a3,3,0,0,1-1.15.15c-2.87,0-4.73-2.19-4.73-5.11a4,4,0,0,1,1.25-3.32A3.9,3.9,0,0,1,51.1,45a4.39,4.39,0,0,1,3,1,2,2,0,0,1,.46,1.13c0,.11,0,.18.13.18s.15-.07.15-.29A17.37,17.37,0,0,1,55,44.8c0-.1,0-.15-.19-.17a8.92,8.92,0,0,1-1.07-.14,15.52,15.52,0,0,0-2.41-.22,6.54,6.54,0,0,0-3.65.88,5.09,5.09,0,0,0-2.36,4.44c0,3.75,2.94,5.32,6.27,5.32a7.69,7.69,0,0,0,3.27-.61c.17-.09.18-.12.18-.49Z"
        transform="translate(-16.17 -15.4)"/>
  <path class="cls-1"
        d="M169.92,37.55a7.84,7.84,0,0,0,4.05-.86,4.8,4.8,0,0,0,2.37-4.19c0-2.11-1.07-3.81-4.16-5.92l-.72-.49c-2.52-1.71-3.3-2.6-3.3-4.16,0-1.73,1.53-2.66,3.38-2.66,2.28,0,3.12.93,3.29,1.21a4.43,4.43,0,0,1,.38,1.22c0,.2.06.32.23.32s.2-.18.2-.55a24.85,24.85,0,0,1,.12-2.6c0-.15-.06-.18-.26-.18a3.49,3.49,0,0,1-.9-.11,11.84,11.84,0,0,0-2.63-.29c-3.35,0-5.63,1.73-5.63,4.62,0,1.7.9,3.21,3.64,5.26l1.16.86c2.25,1.68,3.2,2.52,3.2,4.28s-1.3,3.26-3.81,3.26c-1.7,0-3.61-.63-4-2.43a3.49,3.49,0,0,1-.09-.89c0-.2-.09-.29-.23-.29s-.2.14-.2.4c0,.41-.15,1.39-.15,2.6,0,.67,0,.75.38.93a9.33,9.33,0,0,0,3.69.66m-16-7.45a48.46,48.46,0,0,1-.15,5.32c-.11.72-.17,1.21-.66,1.29a7,7,0,0,1-.78.12.19.19,0,0,0-.2.2c0,.15.14.2.4.2s1,0,1.47,0,1,0,1.1,0c.38,0,1,0,2.11.06s2.51.08,4.42.08c1,0,1.24,0,1.41-.63a19.43,19.43,0,0,0,.35-2.37c0-.17,0-.38-.17-.38s-.21.09-.26.38a1.88,1.88,0,0,1-1.16,1.7,8.45,8.45,0,0,1-2.54.26c-2.51,0-3-.31-3-2,0-.49,0-3.35,0-4.19V28.05c0-.09,0-.17.17-.17.43,0,3.15,0,3.84.11,1,.12,1.21.41,1.3.75a2.12,2.12,0,0,1,.12.81c0,.15.05.23.17.23s.23-.26.23-.46.06-1.1.12-1.59a11,11,0,0,1,.2-1.35c0-.15-.06-.21-.15-.21s-.2.15-.37.32-.64.29-1.24.35-3.93.06-4.25.06c-.14,0-.14-.09-.14-.26V20c0-.17,0-.25.14-.25.29,0,3.24,0,3.67.08,1.39.17,1.64.35,1.82.75a2.87,2.87,0,0,1,.14.87c0,.2.06.32.2.32s.21-.15.24-.26c.05-.29.11-1.39.14-1.62.06-.69.2-1,.2-1.16s0-.23-.11-.23-.23.09-.35.12-.66.11-1.15.14-5.9,0-6.07,0-1.79,0-3,0c-.28,0-.4,0-.4.2a.26.26,0,0,0,.2.2,7.93,7.93,0,0,1,.87.06c.84.11,1,.52,1,1.35s.06,1.48.06,5.29Zm-17.79,0a48.46,48.46,0,0,1-.15,5.32c-.11.72-.17,1.18-.66,1.29a3.51,3.51,0,0,1-.78.12.19.19,0,0,0-.2.2c0,.15.14.2.4.2.78,0,2.31-.08,2.51-.08s1.74.08,3,.08c.29,0,.4-.08.4-.2a.2.2,0,0,0-.2-.2,7,7,0,0,1-1-.12c-.78-.11-.9-.57-1-1.29-.12-1-.12-3-.12-5.32V27.7h.12c1.21,1.45,6.55,7.08,7.71,8a5.43,5.43,0,0,0,3.09,1.5c.57,0,1,0,1.76,0h1.3c.43,0,.55-.08.55-.2s-.15-.2-.32-.2a5.48,5.48,0,0,1-1.56-.35c-1.21-.49-1.5-.8-3.64-2.71-1-1-6.32-6.24-7-7,.55-.61,4.88-4.77,5.52-5.34a8.81,8.81,0,0,1,2.66-2.08,4.2,4.2,0,0,1,1.41-.35c.2,0,.26-.09.26-.2s-.12-.17-.38-.17c-.63,0-2.31,0-2.45,0-.61,0-1.39,0-1.91,0-.17,0-.28,0-.28.17a.26.26,0,0,0,.23.23c.2,0,.31.17.31.49s-.66,1-1.38,1.76c-1,1-5.49,5.46-5.89,5.92h-.12V25.77c0-3.81,0-4.51.06-5.29s.23-1.21.89-1.35a2.92,2.92,0,0,1,.64-.06.22.22,0,0,0,.2-.2c0-.15-.11-.2-.4-.2-.75,0-2.28,0-2.52,0s-1.7,0-2.85,0c-.29,0-.41,0-.41.2a.26.26,0,0,0,.2.2,7.93,7.93,0,0,1,.87.06c.84.11,1,.52,1,1.35s.06,1.48.06,5.29Zm-15-.72c-.09,0-.12-.06-.09-.17l2.37-6.73c.15-.38.29-.38.43,0l2.52,6.73c0,.11,0,.17-.09.17Zm-3.67,5.14c-.49,1.24-1,2.11-2.13,2.25a7,7,0,0,1-.76.06.23.23,0,0,0-.23.2c0,.15.18.2.49.2,1,0,2.31-.08,2.57-.08s1.68.08,2.29.08c.23,0,.37,0,.37-.2s-.06-.2-.26-.2h-.23c-.43,0-.87-.17-.87-.66a5.13,5.13,0,0,1,.38-1.65l1.44-3.93a.28.28,0,0,1,.26-.2h5.87a.2.2,0,0,1,.23.14l2.28,5.64a.46.46,0,0,1-.23.66c-.12.06-.18.06-.18.17s.41.15.9.18c1.76,0,3.64,0,4,0s.58,0,.58-.2-.17-.2-.32-.2a3.73,3.73,0,0,1-1-.14c-.55-.18-1.24-.49-2.16-2.69-1.56-3.73-5.63-13.86-6.1-14.9-.26-.55-.34-.9-.6-.9s-.29.15-.61,1ZM106.65,23.78c0-4.51,0-5.32.06-6.24s.29-1.5,1.12-1.65a8.17,8.17,0,0,1,1-.08c.11,0,.23-.06.23-.18s-.15-.23-.46-.23c-.87,0-3,.09-3.12.09s-2-.09-3.27-.09c-.31,0-.46.06-.46.23s.12.18.23.18a6.4,6.4,0,0,1,1,.08c.95.21,1.18.67,1.24,1.65s0,1.73,0,6.24v5.08c0,2.77,0,5-.14,6.27-.12.83-.26,1.47-.84,1.58a4.24,4.24,0,0,1-.86.12c-.18,0-.23.09-.23.17s.14.23.46.23,1.07,0,1.64,0,1.07,0,1.19,0c.84,0,1.73,0,2.94.08s2.72.09,4.8.09c1.53,0,1.61-.11,1.82-.78a18.51,18.51,0,0,0,.43-2.89c0-.31,0-.43-.17-.43s-.23.14-.26.38a4.16,4.16,0,0,1-.75,1.73c-.7.84-2,.87-3.5.87-2.25,0-3-.21-3.46-.67s-.64-2.37-.64-6.61ZM85,19.79l3.18.06c2.42.06,3,.61,3.06,1.36l0,.26c0,.34.09.43.2.43s.23-.12.23-.32.09-2,.09-2.8c0-.14,0-.29-.12-.29s-.34.06-.72.12a12.43,12.43,0,0,1-1.82.11H79.53c-.29,0-1.27,0-2-.11a10.2,10.2,0,0,1-1.13-.29c-.08,0-.23.32-.26.46s-.54,2.4-.54,2.66a.19.19,0,0,0,.17.2c.11,0,.2,0,.26-.23a4,4,0,0,1,.4-.78c.38-.58,1-.75,2.57-.78l3.67-.06V30.1c0,2.37,0,4.3-.11,5.32-.09.72-.24,1.21-.76,1.32a3.26,3.26,0,0,1-.75.12.18.18,0,0,0-.2.17c0,.15.12.2.41.2.75,0,2.51-.08,2.62-.08s1.77.08,3.15.08c.29,0,.41-.08.41-.2a.18.18,0,0,0-.21-.2,9.38,9.38,0,0,1-1.15-.12c-.78-.11-.9-.57-1-1.29-.12-1-.12-3-.12-5.32ZM67.32,37.55a7.82,7.82,0,0,0,4-.86,4.8,4.8,0,0,0,2.37-4.19c0-2.11-1.07-3.81-4.16-5.92l-.72-.49c-2.51-1.71-3.29-2.6-3.29-4.16,0-1.73,1.53-2.66,3.37-2.66,2.29,0,3.12.93,3.3,1.21a4.77,4.77,0,0,1,.37,1.22c0,.2.06.32.23.32s.21-.18.21-.55c0-1.68.11-2.49.11-2.6s-.06-.18-.26-.18a3.43,3.43,0,0,1-.89-.11,12,12,0,0,0-2.63-.29c-3.35,0-5.63,1.73-5.63,4.62,0,1.7.89,3.21,3.64,5.26l1.15.86c2.25,1.68,3.21,2.52,3.21,4.28s-1.3,3.26-3.82,3.26c-1.7,0-3.61-.63-4-2.43a3.49,3.49,0,0,1-.09-.89c0-.2-.08-.29-.23-.29s-.2.14-.2.4c0,.41-.14,1.39-.14,2.6,0,.67,0,.75.37.93a9.35,9.35,0,0,0,3.7.66m-16-7.45a51.9,51.9,0,0,1-.14,5.32c-.12.72-.18,1.21-.67,1.29a7,7,0,0,1-.78.12.2.2,0,0,0-.2.2c0,.15.14.2.4.2.41,0,1,0,1.48,0s1,0,1.09,0c.38,0,1,0,2.11.06s2.51.08,4.42.08c1,0,1.24,0,1.42-.63a21.23,21.23,0,0,0,.34-2.37c0-.17,0-.38-.17-.38s-.2.09-.26.38A1.86,1.86,0,0,1,59.17,36a8.42,8.42,0,0,1-2.54.26c-2.51,0-3-.31-3-2,0-.49,0-3.35,0-4.19V28.05c0-.09,0-.17.17-.17.44,0,3.15,0,3.84.11,1,.12,1.22.41,1.3.75a2.12,2.12,0,0,1,.12.81c0,.15.06.23.17.23s.23-.26.23-.46.06-1.1.12-1.59c.06-.81.2-1.21.2-1.35s-.06-.21-.14-.21-.21.15-.38.32-.63.29-1.24.35-3.93.06-4.25.06c-.14,0-.14-.09-.14-.26V20c0-.17,0-.25.14-.25.29,0,3.24,0,3.67.08,1.39.17,1.65.35,1.82.75a2.64,2.64,0,0,1,.15.87c0,.2,0,.32.2.32s.2-.15.23-.26c.06-.29.11-1.39.14-1.62.06-.69.21-1,.21-1.16s0-.23-.12-.23-.23.09-.35.12-.66.11-1.15.14-5.89,0-6.07,0-1.79,0-2.94,0c-.29,0-.41,0-.41.2a.26.26,0,0,0,.21.2,7.74,7.74,0,0,1,.86.06c.84.11,1,.52,1,1.35s.06,1.48.06,5.29ZM33.79,16.85c-.35-1-.52-1.36-.72-1.36s-.29.14-.72,1.33L26.22,33.31h0c-.44-1.53-3.44-12.13-3.87-14a22.16,22.16,0,0,1-.55-2.66.76.76,0,0,1,.37-.69,2.9,2.9,0,0,1,1.13-.17c.14,0,.29,0,.29-.21s-.12-.2-.52-.2c-1.45,0-2.72.09-3,.09s-1.9-.09-3.41-.09c-.28,0-.46.06-.46.2s.12.21.26.21a4.87,4.87,0,0,1,1.3.17c.75.29,1.13.72,1.59,2.25l5.14,17.13c.58,2,.72,2.28,1,2.28s.49-.32,1-1.53c1-2.69,5-13.29,6-16.06h.06l5.66,16.09c.4,1.12.58,1.5.87,1.5s.46-.35,1.21-2.48c1.12-3.24,4-12.42,5.31-16.09.55-1.59,1-2.8,1.88-3.12a4,4,0,0,1,1-.14c.17,0,.26-.09.26-.23s-.14-.18-.4-.18c-.9,0-2.14.09-2.34.09s-1.48-.09-3-.09c-.34,0-.49.06-.49.2a.24.24,0,0,0,.26.21c1.33,0,1.65.34,1.65.86a6.43,6.43,0,0,1-.32,1.85c-1,3.7-3.67,12.07-4.45,14.73h-.11Z"
        transform="translate(-16.17 -15.4)"/>
</svg>
